<svg width="941" height="1117" viewBox="0 0 941 1117" fill="none" xmlns="http://www.w3.org/2000/svg">
<rect width="941" height="1117" fill="#F5F5F5"/>
<g clip-path="url(#clip0_0_1)">
<rect width="1728" height="1117" transform="translate(-787)" fill="white"/>
<rect x="77" width="864" height="1117" fill="#542020"/>
<path fill-rule="evenodd" clip-rule="evenodd" d="M309.55 307.011C403.797 306.265 497.138 344.218 550.21 413.652C599.484 478.117 581.977 560.167 560.922 635.883C540.541 709.17 512.88 787.113 437.017 820.693C360.348 854.629 272.086 829.926 194.239 798.19C113.775 765.387 32.4272 721.926 8.4877 645.993C-16.6281 566.33 16.572 482.299 74.1925 417.421C132.088 352.232 216.283 307.749 309.55 307.011Z" fill="#914B4B" fill-opacity="0.53"/>
<circle cx="194.5" cy="75.5" r="194.5" fill="#682A2A"/>
<ellipse cx="194" cy="75" rx="156" ry="151" fill="#542020"/>
<circle cx="852.5" cy="1019.5" r="194.5" fill="#682A2A"/>
<ellipse cx="852" cy="1019" rx="156" ry="151" fill="#542020"/>
<circle cx="188" cy="68" r="125" fill="#682A2A"/>
<ellipse cx="187.679" cy="67.6786" rx="100.257" ry="97.0437" fill="#542020"/>
<circle cx="853" cy="1024" r="125" fill="#682A2A"/>
<ellipse cx="852.679" cy="1023.68" rx="100.257" ry="97.0437" fill="#542020"/>
<ellipse cx="783.715" cy="58.2886" rx="8.86364" ry="8.86333" transform="rotate(-13.7371 783.715 58.2886)" fill="#904B4B"/>
<ellipse cx="831.931" cy="46.5016" rx="8.86364" ry="8.86333" transform="rotate(-13.7371 831.931 46.5016)" fill="#904B4B"/>
<ellipse cx="807.823" cy="52.3951" rx="8.86364" ry="8.86333" transform="rotate(-13.7371 807.823 52.3951)" fill="#904B4B"/>
<ellipse cx="856.04" cy="40.6081" rx="8.86364" ry="8.86333" transform="rotate(-13.7371 856.04 40.6081)" fill="#904B4B"/>
<ellipse cx="880.148" cy="34.7146" rx="8.86364" ry="8.86333" transform="rotate(-13.7371 880.148 34.7146)" fill="#904B4B"/>
<ellipse cx="789.608" cy="82.396" rx="8.86364" ry="8.86333" transform="rotate(-13.7371 789.608 82.396)" fill="#904B4B"/>
<ellipse cx="837.825" cy="70.609" rx="8.86364" ry="8.86333" transform="rotate(-13.7371 837.825 70.609)" fill="#904B4B"/>
<ellipse cx="813.716" cy="76.5025" rx="8.86364" ry="8.86333" transform="rotate(-13.7371 813.716 76.5025)" fill="#904B4B"/>
<ellipse cx="861.933" cy="64.7155" rx="8.86364" ry="8.86333" transform="rotate(-13.7371 861.933 64.7155)" fill="#904B4B"/>
<ellipse cx="886.041" cy="58.8221" rx="8.86364" ry="8.86333" transform="rotate(-13.7371 886.041 58.8221)" fill="#904B4B"/>
<ellipse cx="795.501" cy="106.503" rx="8.86364" ry="8.86333" transform="rotate(-13.7371 795.501 106.503)" fill="#904B4B"/>
<ellipse cx="843.718" cy="94.7164" rx="8.86364" ry="8.86333" transform="rotate(-13.7371 843.718 94.7164)" fill="#904B4B"/>
<ellipse cx="819.61" cy="100.61" rx="8.86364" ry="8.86333" transform="rotate(-13.7371 819.61 100.61)" fill="#904B4B"/>
<ellipse cx="867.826" cy="88.823" rx="8.86364" ry="8.86333" transform="rotate(-13.7371 867.826 88.823)" fill="#904B4B"/>
<ellipse cx="891.935" cy="82.9295" rx="8.86364" ry="8.86333" transform="rotate(-13.7371 891.935 82.9295)" fill="#904B4B"/>
<ellipse cx="801.395" cy="130.611" rx="8.86364" ry="8.86333" transform="rotate(-13.7371 801.395 130.611)" fill="#904B4B"/>
<ellipse cx="849.611" cy="118.824" rx="8.86364" ry="8.86333" transform="rotate(-13.7371 849.611 118.824)" fill="#904B4B"/>
<ellipse cx="825.503" cy="124.717" rx="8.86364" ry="8.86333" transform="rotate(-13.7371 825.503 124.717)" fill="#904B4B"/>
<ellipse cx="873.72" cy="112.93" rx="8.86364" ry="8.86333" transform="rotate(-13.7371 873.72 112.93)" fill="#904B4B"/>
<ellipse cx="897.828" cy="107.037" rx="8.86364" ry="8.86333" transform="rotate(-13.7371 897.828 107.037)" fill="#904B4B"/>
<ellipse cx="807.288" cy="154.718" rx="8.86364" ry="8.86333" transform="rotate(-13.7371 807.288 154.718)" fill="#904B4B"/>
<ellipse cx="855.504" cy="142.931" rx="8.86364" ry="8.86333" transform="rotate(-13.7371 855.504 142.931)" fill="#904B4B"/>
<ellipse cx="831.396" cy="148.825" rx="8.86364" ry="8.86333" transform="rotate(-13.7371 831.396 148.825)" fill="#904B4B"/>
<ellipse cx="879.613" cy="137.038" rx="8.86364" ry="8.86333" transform="rotate(-13.7371 879.613 137.038)" fill="#904B4B"/>
<ellipse cx="903.721" cy="131.144" rx="8.86364" ry="8.86333" transform="rotate(-13.7371 903.721 131.144)" fill="#904B4B"/>
<ellipse cx="185.425" cy="935.39" rx="8.86364" ry="8.86333" transform="rotate(17.6112 185.425 935.39)" fill="#904B4B"/>
<ellipse cx="232.735" cy="950.408" rx="8.86364" ry="8.86333" transform="rotate(17.6112 232.735 950.408)" fill="#904B4B"/>
<ellipse cx="209.08" cy="942.899" rx="8.86364" ry="8.86333" transform="rotate(17.6112 209.08 942.899)" fill="#904B4B"/>
<ellipse cx="256.39" cy="957.917" rx="8.86364" ry="8.86333" transform="rotate(17.6112 256.39 957.917)" fill="#904B4B"/>
<ellipse cx="280.045" cy="965.426" rx="8.86364" ry="8.86333" transform="rotate(17.6112 280.045 965.426)" fill="#904B4B"/>
<ellipse cx="177.917" cy="959.044" rx="8.86364" ry="8.86333" transform="rotate(17.6112 177.917 959.044)" fill="#904B4B"/>
<ellipse cx="225.227" cy="974.062" rx="8.86364" ry="8.86333" transform="rotate(17.6112 225.227 974.062)" fill="#904B4B"/>
<ellipse cx="201.572" cy="966.553" rx="8.86364" ry="8.86333" transform="rotate(17.6112 201.572 966.553)" fill="#904B4B"/>
<ellipse cx="248.882" cy="981.571" rx="8.86364" ry="8.86333" transform="rotate(17.6112 248.882 981.571)" fill="#904B4B"/>
<ellipse cx="272.537" cy="989.08" rx="8.86364" ry="8.86333" transform="rotate(17.6112 272.537 989.08)" fill="#904B4B"/>
<ellipse cx="170.408" cy="982.699" rx="8.86364" ry="8.86333" transform="rotate(17.6112 170.408 982.699)" fill="#904B4B"/>
<ellipse cx="217.718" cy="997.716" rx="8.86364" ry="8.86333" transform="rotate(17.6112 217.718 997.716)" fill="#904B4B"/>
<ellipse cx="194.063" cy="990.208" rx="8.86364" ry="8.86333" transform="rotate(17.6112 194.063 990.208)" fill="#904B4B"/>
<ellipse cx="241.373" cy="1005.23" rx="8.86364" ry="8.86333" transform="rotate(17.6112 241.373 1005.23)" fill="#904B4B"/>
<ellipse cx="265.028" cy="1012.73" rx="8.86364" ry="8.86333" transform="rotate(17.6112 265.028 1012.73)" fill="#904B4B"/>
<ellipse cx="162.899" cy="1006.35" rx="8.86364" ry="8.86333" transform="rotate(17.6112 162.899 1006.35)" fill="#904B4B"/>
<ellipse cx="210.209" cy="1021.37" rx="8.86364" ry="8.86333" transform="rotate(17.6112 210.209 1021.37)" fill="#904B4B"/>
<ellipse cx="186.554" cy="1013.86" rx="8.86364" ry="8.86333" transform="rotate(17.6112 186.554 1013.86)" fill="#904B4B"/>
<ellipse cx="233.864" cy="1028.88" rx="8.86364" ry="8.86333" transform="rotate(17.6112 233.864 1028.88)" fill="#904B4B"/>
<ellipse cx="257.519" cy="1036.39" rx="8.86364" ry="8.86333" transform="rotate(17.6112 257.519 1036.39)" fill="#904B4B"/>
<ellipse cx="155.391" cy="1030.01" rx="8.86364" ry="8.86333" transform="rotate(17.6112 155.391 1030.01)" fill="#904B4B"/>
<ellipse cx="202.701" cy="1045.02" rx="8.86364" ry="8.86333" transform="rotate(17.6112 202.701 1045.02)" fill="#904B4B"/>
<ellipse cx="179.046" cy="1037.52" rx="8.86364" ry="8.86333" transform="rotate(17.6112 179.046 1037.52)" fill="#904B4B"/>
<ellipse cx="226.356" cy="1052.53" rx="8.86364" ry="8.86333" transform="rotate(17.6112 226.356 1052.53)" fill="#904B4B"/>
<ellipse cx="250.011" cy="1060.04" rx="8.86364" ry="8.86333" transform="rotate(17.6112 250.011 1060.04)" fill="#904B4B"/>
<rect x="-787" width="864" height="1117" fill="white"/>
<path d="M143.36 572V549.6H152.096C154.059 549.6 155.733 549.909 157.12 550.528C158.507 551.147 159.573 552.043 160.32 553.216C161.067 554.389 161.44 555.787 161.44 557.408C161.44 559.029 161.067 560.427 160.32 561.6C159.573 562.752 158.507 563.637 157.12 564.256C155.733 564.875 154.059 565.184 152.096 565.184H145.12L146.56 563.712V572H143.36ZM158.336 572L152.64 563.872H156.064L161.824 572H158.336ZM146.56 564.032L145.12 562.464H152C154.048 562.464 155.595 562.027 156.64 561.152C157.707 560.256 158.24 559.008 158.24 557.408C158.24 555.808 157.707 554.571 156.64 553.696C155.595 552.821 154.048 552.384 152 552.384H145.12L146.56 550.784V564.032ZM173.714 572.192C171.901 572.192 170.301 571.819 168.914 571.072C167.549 570.325 166.482 569.301 165.714 568C164.967 566.699 164.594 565.205 164.594 563.52C164.594 561.835 164.957 560.341 165.682 559.04C166.429 557.739 167.442 556.725 168.722 556C170.023 555.253 171.485 554.88 173.106 554.88C174.749 554.88 176.199 555.243 177.458 555.968C178.717 556.693 179.698 557.717 180.402 559.04C181.127 560.341 181.49 561.867 181.49 563.616C181.49 563.744 181.479 563.893 181.458 564.064C181.458 564.235 181.447 564.395 181.426 564.544H166.994V562.336H179.826L178.578 563.104C178.599 562.016 178.375 561.045 177.906 560.192C177.437 559.339 176.786 558.677 175.954 558.208C175.143 557.717 174.194 557.472 173.106 557.472C172.039 557.472 171.09 557.717 170.258 558.208C169.426 558.677 168.775 559.349 168.306 560.224C167.837 561.077 167.602 562.059 167.602 563.168V563.68C167.602 564.811 167.858 565.824 168.37 566.72C168.903 567.595 169.639 568.277 170.578 568.768C171.517 569.259 172.594 569.504 173.81 569.504C174.813 569.504 175.719 569.333 176.53 568.992C177.362 568.651 178.087 568.139 178.706 567.456L180.402 569.44C179.634 570.336 178.674 571.019 177.522 571.488C176.391 571.957 175.122 572.192 173.714 572.192ZM192.764 572.192C191.121 572.192 189.649 571.829 188.348 571.104C187.068 570.379 186.054 569.365 185.308 568.064C184.561 566.763 184.188 565.248 184.188 563.52C184.188 561.792 184.561 560.288 185.308 559.008C186.054 557.707 187.068 556.693 188.348 555.968C189.649 555.243 191.121 554.88 192.764 554.88C194.193 554.88 195.484 555.2 196.636 555.84C197.788 556.48 198.705 557.44 199.388 558.72C200.092 560 200.444 561.6 200.444 563.52C200.444 565.44 200.102 567.04 199.42 568.32C198.758 569.6 197.852 570.571 196.7 571.232C195.548 571.872 194.236 572.192 192.764 572.192ZM193.02 569.504C194.086 569.504 195.046 569.259 195.9 568.768C196.774 568.277 197.457 567.584 197.948 566.688C198.46 565.771 198.716 564.715 198.716 563.52C198.716 562.304 198.46 561.259 197.948 560.384C197.457 559.488 196.774 558.795 195.9 558.304C195.046 557.813 194.086 557.568 193.02 557.568C191.932 557.568 190.961 557.813 190.108 558.304C189.254 558.795 188.572 559.488 188.06 560.384C187.548 561.259 187.292 562.304 187.292 563.52C187.292 564.715 187.548 565.771 188.06 566.688C188.572 567.584 189.254 568.277 190.108 568.768C190.961 569.259 191.932 569.504 193.02 569.504ZM198.812 572V567.424L199.004 563.488L198.684 559.552V548.256H201.756V572H198.812ZM207.568 572V555.04H210.64V572H207.568ZM209.104 551.776C208.507 551.776 208.006 551.584 207.6 551.2C207.216 550.816 207.024 550.347 207.024 549.792C207.024 549.216 207.216 548.736 207.6 548.352C208.006 547.968 208.507 547.776 209.104 547.776C209.702 547.776 210.192 547.968 210.576 548.352C210.982 548.715 211.184 549.173 211.184 549.728C211.184 550.304 210.992 550.795 210.608 551.2C210.224 551.584 209.723 551.776 209.104 551.776ZM221.37 572.192C219.962 572.192 218.618 572 217.338 571.616C216.079 571.232 215.087 570.763 214.362 570.208L215.642 567.776C216.367 568.267 217.263 568.683 218.33 569.024C219.396 569.365 220.484 569.536 221.594 569.536C223.023 569.536 224.047 569.333 224.666 568.928C225.306 568.523 225.626 567.957 225.626 567.232C225.626 566.699 225.434 566.283 225.05 565.984C224.666 565.685 224.154 565.461 223.514 565.312C222.895 565.163 222.202 565.035 221.434 564.928C220.666 564.8 219.898 564.651 219.13 564.48C218.362 564.288 217.658 564.032 217.018 563.712C216.378 563.371 215.866 562.912 215.482 562.336C215.098 561.739 214.906 560.949 214.906 559.968C214.906 558.944 215.194 558.048 215.77 557.28C216.346 556.512 217.156 555.925 218.202 555.52C219.268 555.093 220.527 554.88 221.978 554.88C223.087 554.88 224.207 555.019 225.338 555.296C226.49 555.552 227.428 555.925 228.154 556.416L226.842 558.848C226.074 558.336 225.274 557.984 224.442 557.792C223.61 557.6 222.778 557.504 221.946 557.504C220.602 557.504 219.599 557.728 218.938 558.176C218.276 558.603 217.946 559.157 217.946 559.84C217.946 560.416 218.138 560.864 218.522 561.184C218.927 561.483 219.439 561.717 220.058 561.888C220.698 562.059 221.402 562.208 222.17 562.336C222.938 562.443 223.706 562.592 224.474 562.784C225.242 562.955 225.935 563.2 226.554 563.52C227.194 563.84 227.706 564.288 228.09 564.864C228.495 565.44 228.698 566.208 228.698 567.168C228.698 568.192 228.399 569.077 227.802 569.824C227.204 570.571 226.362 571.157 225.274 571.584C224.186 571.989 222.884 572.192 221.37 572.192ZM239.929 572.192C238.201 572.192 236.654 571.819 235.289 571.072C233.945 570.325 232.889 569.301 232.121 568C231.353 566.699 230.969 565.205 230.969 563.52C230.969 561.835 231.353 560.341 232.121 559.04C232.889 557.739 233.945 556.725 235.289 556C236.654 555.253 238.201 554.88 239.929 554.88C241.465 554.88 242.83 555.189 244.025 555.808C245.241 556.405 246.18 557.301 246.841 558.496L244.505 560C243.95 559.168 243.268 558.56 242.457 558.176C241.668 557.771 240.814 557.568 239.897 557.568C238.788 557.568 237.796 557.813 236.921 558.304C236.046 558.795 235.353 559.488 234.841 560.384C234.329 561.259 234.073 562.304 234.073 563.52C234.073 564.736 234.329 565.792 234.841 566.688C235.353 567.584 236.046 568.277 236.921 568.768C237.796 569.259 238.788 569.504 239.897 569.504C240.814 569.504 241.668 569.312 242.457 568.928C243.268 568.523 243.95 567.904 244.505 567.072L246.841 568.544C246.18 569.717 245.241 570.624 244.025 571.264C242.83 571.883 241.465 572.192 239.929 572.192ZM257.832 572.192C256.126 572.192 254.611 571.819 253.288 571.072C251.966 570.325 250.92 569.301 250.152 568C249.384 566.677 249 565.184 249 563.52C249 561.835 249.384 560.341 250.152 559.04C250.92 557.739 251.966 556.725 253.288 556C254.611 555.253 256.126 554.88 257.832 554.88C259.518 554.88 261.022 555.253 262.344 556C263.688 556.725 264.734 557.739 265.48 559.04C266.248 560.32 266.632 561.813 266.632 563.52C266.632 565.205 266.248 566.699 265.48 568C264.734 569.301 263.688 570.325 262.344 571.072C261.022 571.819 259.518 572.192 257.832 572.192ZM257.832 569.504C258.92 569.504 259.891 569.259 260.744 568.768C261.619 568.277 262.302 567.584 262.792 566.688C263.283 565.771 263.528 564.715 263.528 563.52C263.528 562.304 263.283 561.259 262.792 560.384C262.302 559.488 261.619 558.795 260.744 558.304C259.891 557.813 258.92 557.568 257.832 557.568C256.744 557.568 255.774 557.813 254.92 558.304C254.067 558.795 253.384 559.488 252.872 560.384C252.36 561.259 252.104 562.304 252.104 563.52C252.104 564.715 252.36 565.771 252.872 566.688C253.384 567.584 254.067 568.277 254.92 568.768C255.774 569.259 256.744 569.504 257.832 569.504ZM274.86 572L267.436 555.04H270.636L277.228 570.4H275.692L282.412 555.04H285.42L277.996 572H274.86ZM295.37 572.192C293.557 572.192 291.957 571.819 290.57 571.072C289.205 570.325 288.138 569.301 287.37 568C286.624 566.699 286.25 565.205 286.25 563.52C286.25 561.835 286.613 560.341 287.338 559.04C288.085 557.739 289.098 556.725 290.378 556C291.68 555.253 293.141 554.88 294.762 554.88C296.405 554.88 297.856 555.243 299.114 555.968C300.373 556.693 301.354 557.717 302.058 559.04C302.784 560.341 303.146 561.867 303.146 563.616C303.146 563.744 303.136 563.893 303.114 564.064C303.114 564.235 303.104 564.395 303.082 564.544H288.65V562.336H301.482L300.234 563.104C300.256 562.016 300.032 561.045 299.562 560.192C299.093 559.339 298.442 558.677 297.61 558.208C296.8 557.717 295.85 557.472 294.762 557.472C293.696 557.472 292.746 557.717 291.914 558.208C291.082 558.677 290.432 559.349 289.962 560.224C289.493 561.077 289.258 562.059 289.258 563.168V563.68C289.258 564.811 289.514 565.824 290.026 566.72C290.56 567.595 291.296 568.277 292.234 568.768C293.173 569.259 294.25 569.504 295.466 569.504C296.469 569.504 297.376 569.333 298.186 568.992C299.018 568.651 299.744 568.139 300.362 567.456L302.058 569.44C301.29 570.336 300.33 571.019 299.178 571.488C298.048 571.957 296.778 572.192 295.37 572.192ZM307.412 572V555.04H310.356V559.648L310.068 558.496C310.537 557.323 311.327 556.427 312.436 555.808C313.545 555.189 314.911 554.88 316.532 554.88V557.856C316.404 557.835 316.276 557.824 316.148 557.824C316.041 557.824 315.935 557.824 315.828 557.824C314.185 557.824 312.884 558.315 311.924 559.296C310.964 560.277 310.484 561.696 310.484 563.552V572H307.412ZM339.659 572V568.416L339.499 567.744V561.632C339.499 560.331 339.115 559.328 338.347 558.624C337.6 557.899 336.469 557.536 334.955 557.536C333.952 557.536 332.971 557.707 332.011 558.048C331.051 558.368 330.24 558.805 329.579 559.36L328.299 557.056C329.173 556.352 330.219 555.819 331.435 555.456C332.672 555.072 333.963 554.88 335.307 554.88C337.632 554.88 339.424 555.445 340.683 556.576C341.941 557.707 342.571 559.435 342.571 561.76V572H339.659ZM334.091 572.192C332.832 572.192 331.723 571.979 330.763 571.552C329.824 571.125 329.099 570.539 328.587 569.792C328.075 569.024 327.819 568.16 327.819 567.2C327.819 566.283 328.032 565.451 328.459 564.704C328.907 563.957 329.621 563.36 330.603 562.912C331.605 562.464 332.949 562.24 334.635 562.24H340.011V564.448H334.763C333.227 564.448 332.192 564.704 331.659 565.216C331.125 565.728 330.859 566.347 330.859 567.072C330.859 567.904 331.189 568.576 331.851 569.088C332.512 569.579 333.429 569.824 334.603 569.824C335.755 569.824 336.757 569.568 337.611 569.056C338.485 568.544 339.115 567.797 339.499 566.816L340.107 568.928C339.701 569.931 338.987 570.731 337.963 571.328C336.939 571.904 335.648 572.192 334.091 572.192ZM364.274 578.4C362.716 578.4 361.202 578.176 359.73 577.728C358.279 577.301 357.095 576.683 356.178 575.872L357.65 573.504C358.439 574.187 359.41 574.72 360.562 575.104C361.714 575.509 362.919 575.712 364.178 575.712C366.183 575.712 367.655 575.243 368.594 574.304C369.532 573.365 370.002 571.936 370.002 570.016V566.432L370.322 563.072L370.162 559.68V555.04H373.074V569.696C373.074 572.683 372.327 574.88 370.833 576.288C369.34 577.696 367.154 578.4 364.274 578.4ZM363.89 571.296C362.247 571.296 360.775 570.955 359.474 570.272C358.194 569.568 357.17 568.597 356.402 567.36C355.655 566.123 355.282 564.693 355.282 563.072C355.282 561.429 355.655 560 356.402 558.784C357.17 557.547 358.194 556.587 359.474 555.904C360.775 555.221 362.247 554.88 363.89 554.88C365.34 554.88 366.663 555.179 367.858 555.776C369.052 556.352 370.002 557.248 370.706 558.464C371.431 559.68 371.794 561.216 371.794 563.072C371.794 564.907 371.431 566.432 370.706 567.648C370.002 568.864 369.052 569.781 367.858 570.4C366.663 570.997 365.34 571.296 363.89 571.296ZM364.242 568.608C365.372 568.608 366.375 568.373 367.25 567.904C368.124 567.435 368.807 566.784 369.298 565.952C369.81 565.12 370.066 564.16 370.066 563.072C370.066 561.984 369.81 561.024 369.298 560.192C368.807 559.36 368.124 558.72 367.25 558.272C366.375 557.803 365.372 557.568 364.242 557.568C363.111 557.568 362.098 557.803 361.202 558.272C360.327 558.72 359.634 559.36 359.122 560.192C358.631 561.024 358.386 561.984 358.386 563.072C358.386 564.16 358.631 565.12 359.122 565.952C359.634 566.784 360.327 567.435 361.202 567.904C362.098 568.373 363.111 568.608 364.242 568.608ZM378.943 572V555.04H381.887V559.648L381.599 558.496C382.069 557.323 382.858 556.427 383.967 555.808C385.077 555.189 386.442 554.88 388.063 554.88V557.856C387.935 557.835 387.807 557.824 387.679 557.824C387.573 557.824 387.466 557.824 387.359 557.824C385.717 557.824 384.415 558.315 383.455 559.296C382.495 560.277 382.015 561.696 382.015 563.552V572H378.943ZM399.245 572.192C397.432 572.192 395.832 571.819 394.445 571.072C393.08 570.325 392.013 569.301 391.245 568C390.499 566.699 390.125 565.205 390.125 563.52C390.125 561.835 390.488 560.341 391.213 559.04C391.96 557.739 392.973 556.725 394.253 556C395.555 555.253 397.016 554.88 398.637 554.88C400.28 554.88 401.731 555.243 402.989 555.968C404.248 556.693 405.229 557.717 405.933 559.04C406.659 560.341 407.021 561.867 407.021 563.616C407.021 563.744 407.011 563.893 406.989 564.064C406.989 564.235 406.979 564.395 406.957 564.544H392.525V562.336H405.357L404.109 563.104C404.131 562.016 403.907 561.045 403.437 560.192C402.968 559.339 402.317 558.677 401.485 558.208C400.675 557.717 399.725 557.472 398.637 557.472C397.571 557.472 396.621 557.717 395.789 558.208C394.957 558.677 394.307 559.349 393.837 560.224C393.368 561.077 393.133 562.059 393.133 563.168V563.68C393.133 564.811 393.389 565.824 393.901 566.72C394.435 567.595 395.171 568.277 396.109 568.768C397.048 569.259 398.125 569.504 399.341 569.504C400.344 569.504 401.251 569.333 402.061 568.992C402.893 568.651 403.619 568.139 404.237 567.456L405.933 569.44C405.165 570.336 404.205 571.019 403.053 571.488C401.923 571.957 400.653 572.192 399.245 572.192ZM421.346 572V568.416L421.186 567.744V561.632C421.186 560.331 420.802 559.328 420.034 558.624C419.288 557.899 418.157 557.536 416.642 557.536C415.64 557.536 414.658 557.707 413.698 558.048C412.738 558.368 411.928 558.805 411.266 559.36L409.986 557.056C410.861 556.352 411.906 555.819 413.122 555.456C414.36 555.072 415.65 554.88 416.994 554.88C419.32 554.88 421.112 555.445 422.37 556.576C423.629 557.707 424.258 559.435 424.258 561.76V572H421.346ZM415.778 572.192C414.52 572.192 413.41 571.979 412.45 571.552C411.512 571.125 410.786 570.539 410.274 569.792C409.762 569.024 409.506 568.16 409.506 567.2C409.506 566.283 409.72 565.451 410.146 564.704C410.594 563.957 411.309 563.36 412.29 562.912C413.293 562.464 414.637 562.24 416.322 562.24H421.698V564.448H416.45C414.914 564.448 413.88 564.704 413.346 565.216C412.813 565.728 412.546 566.347 412.546 567.072C412.546 567.904 412.877 568.576 413.538 569.088C414.2 569.579 415.117 569.824 416.29 569.824C417.442 569.824 418.445 569.568 419.298 569.056C420.173 568.544 420.802 567.797 421.186 566.816L421.794 568.928C421.389 569.931 420.674 570.731 419.65 571.328C418.626 571.904 417.336 572.192 415.778 572.192ZM435.767 572.192C434.061 572.192 432.738 571.733 431.799 570.816C430.861 569.899 430.391 568.587 430.391 566.88V551.328H433.463V566.752C433.463 567.669 433.687 568.373 434.135 568.864C434.605 569.355 435.266 569.6 436.119 569.6C437.079 569.6 437.879 569.333 438.519 568.8L439.479 571.008C439.01 571.413 438.445 571.712 437.783 571.904C437.143 572.096 436.471 572.192 435.767 572.192ZM427.511 557.568V555.04H438.327V557.568H427.511ZM456.651 572.192C455.243 572.192 453.899 572 452.619 571.616C451.36 571.232 450.368 570.763 449.643 570.208L450.923 567.776C451.648 568.267 452.544 568.683 453.611 569.024C454.678 569.365 455.766 569.536 456.875 569.536C458.304 569.536 459.328 569.333 459.947 568.928C460.587 568.523 460.907 567.957 460.907 567.232C460.907 566.699 460.715 566.283 460.331 565.984C459.947 565.685 459.435 565.461 458.795 565.312C458.176 565.163 457.483 565.035 456.715 564.928C455.947 564.8 455.179 564.651 454.411 564.48C453.643 564.288 452.939 564.032 452.299 563.712C451.659 563.371 451.147 562.912 450.763 562.336C450.379 561.739 450.187 560.949 450.187 559.968C450.187 558.944 450.475 558.048 451.051 557.28C451.627 556.512 452.438 555.925 453.483 555.52C454.55 555.093 455.808 554.88 457.259 554.88C458.368 554.88 459.488 555.019 460.619 555.296C461.771 555.552 462.71 555.925 463.435 556.416L462.123 558.848C461.355 558.336 460.555 557.984 459.723 557.792C458.891 557.6 458.059 557.504 457.227 557.504C455.883 557.504 454.88 557.728 454.219 558.176C453.558 558.603 453.227 559.157 453.227 559.84C453.227 560.416 453.419 560.864 453.803 561.184C454.208 561.483 454.72 561.717 455.339 561.888C455.979 562.059 456.683 562.208 457.451 562.336C458.219 562.443 458.987 562.592 459.755 562.784C460.523 562.955 461.216 563.2 461.835 563.52C462.475 563.84 462.987 564.288 463.371 564.864C463.776 565.44 463.979 566.208 463.979 567.168C463.979 568.192 463.68 569.077 463.083 569.824C462.486 570.571 461.643 571.157 460.555 571.584C459.467 571.989 458.166 572.192 456.651 572.192ZM476.874 554.88C478.261 554.88 479.477 555.147 480.522 555.68C481.589 556.213 482.421 557.024 483.018 558.112C483.616 559.2 483.914 560.576 483.914 562.24V572H480.842V562.592C480.842 560.949 480.437 559.712 479.626 558.88C478.837 558.048 477.717 557.632 476.266 557.632C475.178 557.632 474.229 557.845 473.418 558.272C472.608 558.699 471.978 559.328 471.53 560.16C471.104 560.992 470.89 562.027 470.89 563.264V572H467.818V548.256H470.89V559.616L470.282 558.4C470.837 557.291 471.69 556.427 472.842 555.808C473.994 555.189 475.338 554.88 476.874 554.88ZM496.864 572.192C495.157 572.192 493.642 571.819 492.32 571.072C490.997 570.325 489.952 569.301 489.184 568C488.416 566.677 488.032 565.184 488.032 563.52C488.032 561.835 488.416 560.341 489.184 559.04C489.952 557.739 490.997 556.725 492.32 556C493.642 555.253 495.157 554.88 496.864 554.88C498.549 554.88 500.053 555.253 501.376 556C502.72 556.725 503.765 557.739 504.512 559.04C505.28 560.32 505.664 561.813 505.664 563.52C505.664 565.205 505.28 566.699 504.512 568C503.765 569.301 502.72 570.325 501.376 571.072C500.053 571.819 498.549 572.192 496.864 572.192ZM496.864 569.504C497.952 569.504 498.922 569.259 499.776 568.768C500.65 568.277 501.333 567.584 501.824 566.688C502.314 565.771 502.56 564.715 502.56 563.52C502.56 562.304 502.314 561.259 501.824 560.384C501.333 559.488 500.65 558.795 499.776 558.304C498.922 557.813 497.952 557.568 496.864 557.568C495.776 557.568 494.805 557.813 493.952 558.304C493.098 558.795 492.416 559.488 491.904 560.384C491.392 561.259 491.136 562.304 491.136 563.52C491.136 564.715 491.392 565.771 491.904 566.688C492.416 567.584 493.098 568.277 493.952 568.768C494.805 569.259 495.776 569.504 496.864 569.504ZM518.904 572.192C517.496 572.192 516.205 571.872 515.032 571.232C513.88 570.571 512.952 569.6 512.248 568.32C511.565 567.04 511.224 565.44 511.224 563.52C511.224 561.6 511.555 560 512.216 558.72C512.899 557.44 513.816 556.48 514.968 555.84C516.141 555.2 517.453 554.88 518.904 554.88C520.568 554.88 522.04 555.243 523.32 555.968C524.6 556.693 525.613 557.707 526.36 559.008C527.107 560.288 527.48 561.792 527.48 563.52C527.48 565.248 527.107 566.763 526.36 568.064C525.613 569.365 524.6 570.379 523.32 571.104C522.04 571.829 520.568 572.192 518.904 572.192ZM509.912 578.208V555.04H512.856V559.616L512.664 563.552L512.984 567.488V578.208H509.912ZM518.648 569.504C519.736 569.504 520.707 569.259 521.56 568.768C522.435 568.277 523.117 567.584 523.608 566.688C524.12 565.771 524.376 564.715 524.376 563.52C524.376 562.304 524.12 561.259 523.608 560.384C523.117 559.488 522.435 558.795 521.56 558.304C520.707 557.813 519.736 557.568 518.648 557.568C517.581 557.568 516.611 557.813 515.736 558.304C514.883 558.795 514.2 559.488 513.688 560.384C513.197 561.259 512.952 562.304 512.952 563.52C512.952 564.715 513.197 565.771 513.688 566.688C514.2 567.584 514.883 568.277 515.736 568.768C516.611 569.259 517.581 569.504 518.648 569.504ZM540.717 572.192C539.309 572.192 538.018 571.872 536.845 571.232C535.693 570.571 534.765 569.6 534.061 568.32C533.378 567.04 533.036 565.44 533.036 563.52C533.036 561.6 533.367 560 534.029 558.72C534.711 557.44 535.629 556.48 536.781 555.84C537.954 555.2 539.266 554.88 540.717 554.88C542.381 554.88 543.853 555.243 545.133 555.968C546.413 556.693 547.426 557.707 548.173 559.008C548.919 560.288 549.293 561.792 549.293 563.52C549.293 565.248 548.919 566.763 548.173 568.064C547.426 569.365 546.413 570.379 545.133 571.104C543.853 571.829 542.381 572.192 540.717 572.192ZM531.725 578.208V555.04H534.669V559.616L534.477 563.552L534.797 567.488V578.208H531.725ZM540.461 569.504C541.549 569.504 542.519 569.259 543.373 568.768C544.247 568.277 544.93 567.584 545.421 566.688C545.933 565.771 546.189 564.715 546.189 563.52C546.189 562.304 545.933 561.259 545.421 560.384C544.93 559.488 544.247 558.795 543.373 558.304C542.519 557.813 541.549 557.568 540.461 557.568C539.394 557.568 538.423 557.813 537.549 558.304C536.695 558.795 536.013 559.488 535.501 560.384C535.01 561.259 534.765 562.304 534.765 563.52C534.765 564.715 535.01 565.771 535.501 566.688C536.013 567.584 536.695 568.277 537.549 568.768C538.423 569.259 539.394 569.504 540.461 569.504ZM553.537 572V555.04H556.609V572H553.537ZM555.073 551.776C554.476 551.776 553.974 551.584 553.569 551.2C553.185 550.816 552.993 550.347 552.993 549.792C552.993 549.216 553.185 548.736 553.569 548.352C553.974 547.968 554.476 547.776 555.073 547.776C555.67 547.776 556.161 547.968 556.545 548.352C556.95 548.715 557.153 549.173 557.153 549.728C557.153 550.304 556.961 550.795 556.577 551.2C556.193 551.584 555.692 551.776 555.073 551.776ZM571.531 554.88C572.917 554.88 574.133 555.147 575.179 555.68C576.245 556.213 577.077 557.024 577.675 558.112C578.272 559.2 578.571 560.576 578.571 562.24V572H575.499V562.592C575.499 560.949 575.093 559.712 574.283 558.88C573.493 558.048 572.373 557.632 570.923 557.632C569.835 557.632 568.885 557.845 568.075 558.272C567.264 558.699 566.635 559.328 566.187 560.16C565.76 560.992 565.547 562.027 565.547 563.264V572H562.475V555.04H565.419V559.616L564.939 558.4C565.493 557.291 566.347 556.427 567.499 555.808C568.651 555.189 569.995 554.88 571.531 554.88ZM591.68 578.4C590.122 578.4 588.608 578.176 587.136 577.728C585.685 577.301 584.501 576.683 583.584 575.872L585.056 573.504C585.845 574.187 586.816 574.72 587.968 575.104C589.12 575.509 590.325 575.712 591.584 575.712C593.589 575.712 595.061 575.243 596 574.304C596.938 573.365 597.408 571.936 597.408 570.016V566.432L597.728 563.072L597.568 559.68V555.04H600.48V569.696C600.48 572.683 599.733 574.88 598.24 576.288C596.746 577.696 594.56 578.4 591.68 578.4ZM591.296 571.296C589.653 571.296 588.181 570.955 586.88 570.272C585.6 569.568 584.576 568.597 583.808 567.36C583.061 566.123 582.688 564.693 582.688 563.072C582.688 561.429 583.061 560 583.808 558.784C584.576 557.547 585.6 556.587 586.88 555.904C588.181 555.221 589.653 554.88 591.296 554.88C592.746 554.88 594.069 555.179 595.264 555.776C596.458 556.352 597.408 557.248 598.112 558.464C598.837 559.68 599.2 561.216 599.2 563.072C599.2 564.907 598.837 566.432 598.112 567.648C597.408 568.864 596.458 569.781 595.264 570.4C594.069 570.997 592.746 571.296 591.296 571.296ZM591.648 568.608C592.778 568.608 593.781 568.373 594.656 567.904C595.53 567.435 596.213 566.784 596.704 565.952C597.216 565.12 597.472 564.16 597.472 563.072C597.472 561.984 597.216 561.024 596.704 560.192C596.213 559.36 595.53 558.72 594.656 558.272C593.781 557.803 592.778 557.568 591.648 557.568C590.517 557.568 589.504 557.803 588.608 558.272C587.733 558.72 587.04 559.36 586.528 560.192C586.037 561.024 585.792 561.984 585.792 563.072C585.792 564.16 586.037 565.12 586.528 565.952C587.04 566.784 587.733 567.435 588.608 567.904C589.504 568.373 590.517 568.608 591.648 568.608ZM148.736 611.192C147.029 611.192 145.707 610.733 144.768 609.816C143.829 608.899 143.36 607.587 143.36 605.88V590.328H146.432V605.752C146.432 606.669 146.656 607.373 147.104 607.864C147.573 608.355 148.235 608.6 149.088 608.6C150.048 608.6 150.848 608.333 151.488 607.8L152.448 610.008C151.979 610.413 151.413 610.712 150.752 610.904C150.112 611.096 149.44 611.192 148.736 611.192ZM140.48 596.568V594.04H151.296V596.568H140.48ZM156.162 611V594.04H159.106V598.648L158.818 597.496C159.287 596.323 160.077 595.427 161.186 594.808C162.295 594.189 163.661 593.88 165.282 593.88V596.856C165.154 596.835 165.026 596.824 164.898 596.824C164.791 596.824 164.685 596.824 164.578 596.824C162.935 596.824 161.634 597.315 160.674 598.296C159.714 599.277 159.234 600.696 159.234 602.552V611H156.162ZM178.346 611V607.416L178.186 606.744V600.632C178.186 599.331 177.802 598.328 177.034 597.624C176.288 596.899 175.157 596.536 173.642 596.536C172.64 596.536 171.658 596.707 170.698 597.048C169.738 597.368 168.928 597.805 168.266 598.36L166.986 596.056C167.861 595.352 168.906 594.819 170.122 594.456C171.36 594.072 172.65 593.88 173.994 593.88C176.32 593.88 178.112 594.445 179.37 595.576C180.629 596.707 181.258 598.435 181.258 600.76V611H178.346ZM172.778 611.192C171.52 611.192 170.41 610.979 169.45 610.552C168.512 610.125 167.786 609.539 167.274 608.792C166.762 608.024 166.506 607.16 166.506 606.2C166.506 605.283 166.72 604.451 167.146 603.704C167.594 602.957 168.309 602.36 169.29 601.912C170.293 601.464 171.637 601.24 173.322 601.24H178.698V603.448H173.45C171.914 603.448 170.88 603.704 170.346 604.216C169.813 604.728 169.546 605.347 169.546 606.072C169.546 606.904 169.877 607.576 170.538 608.088C171.2 608.579 172.117 608.824 173.29 608.824C174.442 608.824 175.445 608.568 176.298 608.056C177.173 607.544 177.802 606.797 178.186 605.816L178.794 607.928C178.389 608.931 177.674 609.731 176.65 610.328C175.626 610.904 174.336 611.192 172.778 611.192ZM193.951 611.192C192.309 611.192 190.837 610.829 189.535 610.104C188.255 609.379 187.242 608.365 186.495 607.064C185.749 605.763 185.375 604.248 185.375 602.52C185.375 600.792 185.749 599.288 186.495 598.008C187.242 596.707 188.255 595.693 189.535 594.968C190.837 594.243 192.309 593.88 193.951 593.88C195.381 593.88 196.671 594.2 197.823 594.84C198.975 595.48 199.893 596.44 200.575 597.72C201.279 599 201.631 600.6 201.631 602.52C201.631 604.44 201.29 606.04 200.607 607.32C199.946 608.6 199.039 609.571 197.887 610.232C196.735 610.872 195.423 611.192 193.951 611.192ZM194.207 608.504C195.274 608.504 196.234 608.259 197.087 607.768C197.962 607.277 198.645 606.584 199.135 605.688C199.647 604.771 199.903 603.715 199.903 602.52C199.903 601.304 199.647 600.259 199.135 599.384C198.645 598.488 197.962 597.795 197.087 597.304C196.234 596.813 195.274 596.568 194.207 596.568C193.119 596.568 192.149 596.813 191.295 597.304C190.442 597.795 189.759 598.488 189.247 599.384C188.735 600.259 188.479 601.304 188.479 602.52C188.479 603.715 188.735 604.771 189.247 605.688C189.759 606.584 190.442 607.277 191.295 607.768C192.149 608.259 193.119 608.504 194.207 608.504ZM199.999 611V606.424L200.191 602.488L199.871 598.552V587.256H202.943V611H199.999ZM208.756 611V594.04H211.828V611H208.756ZM210.292 590.776C209.694 590.776 209.193 590.584 208.788 590.2C208.404 589.816 208.212 589.347 208.212 588.792C208.212 588.216 208.404 587.736 208.788 587.352C209.193 586.968 209.694 586.776 210.292 586.776C210.889 586.776 211.38 586.968 211.764 587.352C212.169 587.715 212.372 588.173 212.372 588.728C212.372 589.304 212.18 589.795 211.796 590.2C211.412 590.584 210.91 590.776 210.292 590.776ZM223.517 611.192C221.811 611.192 220.488 610.733 219.549 609.816C218.611 608.899 218.141 607.587 218.141 605.88V590.328H221.213V605.752C221.213 606.669 221.437 607.373 221.885 607.864C222.355 608.355 223.016 608.6 223.869 608.6C224.829 608.6 225.629 608.333 226.269 607.8L227.229 610.008C226.76 610.413 226.195 610.712 225.533 610.904C224.893 611.096 224.221 611.192 223.517 611.192ZM215.261 596.568V594.04H226.077V596.568H215.261ZM230.943 611V594.04H234.015V611H230.943ZM232.479 590.776C231.882 590.776 231.381 590.584 230.975 590.2C230.591 589.816 230.399 589.347 230.399 588.792C230.399 588.216 230.591 587.736 230.975 587.352C231.381 586.968 231.882 586.776 232.479 586.776C233.077 586.776 233.567 586.968 233.951 587.352C234.357 587.715 234.559 588.173 234.559 588.728C234.559 589.304 234.367 589.795 233.983 590.2C233.599 590.584 233.098 590.776 232.479 590.776ZM247.145 611.192C245.438 611.192 243.923 610.819 242.601 610.072C241.278 609.325 240.233 608.301 239.465 607C238.697 605.677 238.313 604.184 238.313 602.52C238.313 600.835 238.697 599.341 239.465 598.04C240.233 596.739 241.278 595.725 242.601 595C243.923 594.253 245.438 593.88 247.145 593.88C248.83 593.88 250.334 594.253 251.657 595C253.001 595.725 254.046 596.739 254.793 598.04C255.561 599.32 255.945 600.813 255.945 602.52C255.945 604.205 255.561 605.699 254.793 607C254.046 608.301 253.001 609.325 251.657 610.072C250.334 610.819 248.83 611.192 247.145 611.192ZM247.145 608.504C248.233 608.504 249.203 608.259 250.057 607.768C250.931 607.277 251.614 606.584 252.105 605.688C252.595 604.771 252.841 603.715 252.841 602.52C252.841 601.304 252.595 600.259 252.105 599.384C251.614 598.488 250.931 597.795 250.057 597.304C249.203 596.813 248.233 596.568 247.145 596.568C246.057 596.568 245.086 596.813 244.233 597.304C243.379 597.795 242.697 598.488 242.185 599.384C241.673 600.259 241.417 601.304 241.417 602.52C241.417 603.715 241.673 604.771 242.185 605.688C242.697 606.584 243.379 607.277 244.233 607.768C245.086 608.259 246.057 608.504 247.145 608.504ZM269.249 593.88C270.636 593.88 271.852 594.147 272.897 594.68C273.964 595.213 274.796 596.024 275.393 597.112C275.991 598.2 276.289 599.576 276.289 601.24V611H273.217V601.592C273.217 599.949 272.812 598.712 272.001 597.88C271.212 597.048 270.092 596.632 268.641 596.632C267.553 596.632 266.604 596.845 265.793 597.272C264.983 597.699 264.353 598.328 263.905 599.16C263.479 599.992 263.265 601.027 263.265 602.264V611H260.193V594.04H263.137V598.616L262.657 597.4C263.212 596.291 264.065 595.427 265.217 594.808C266.369 594.189 267.713 593.88 269.249 593.88Z" fill="#D1D1D1"/>
<path d="M171.936 513.064H155.168L152.48 521H141.024L157.28 476.072H169.952L186.208 521H174.624L171.936 513.064ZM169.12 504.616L163.552 488.168L158.048 504.616H169.12ZM219.316 476.072V506.664C219.316 511.4 217.972 515.048 215.284 517.608C212.638 520.168 209.054 521.448 204.532 521.448C199.796 521.448 195.998 520.104 193.14 517.416C190.281 514.728 188.852 510.909 188.852 505.96H199.732C199.732 507.837 200.116 509.267 200.884 510.248C201.652 511.187 202.761 511.656 204.212 511.656C205.534 511.656 206.558 511.229 207.284 510.376C208.009 509.523 208.372 508.285 208.372 506.664V476.072H219.316ZM226.684 512.232C228.134 511.08 228.796 510.547 228.668 510.632C232.849 507.176 236.134 504.339 238.524 502.12C240.956 499.901 243.004 497.576 244.668 495.144C246.332 492.712 247.164 490.344 247.164 488.04C247.164 486.291 246.758 484.925 245.948 483.944C245.137 482.963 243.921 482.472 242.3 482.472C240.678 482.472 239.398 483.091 238.46 484.328C237.564 485.523 237.116 487.229 237.116 489.448H226.556C226.641 485.821 227.409 482.792 228.86 480.36C230.353 477.928 232.294 476.136 234.684 474.984C237.116 473.832 239.804 473.256 242.748 473.256C247.825 473.256 251.644 474.557 254.204 477.16C256.806 479.763 258.108 483.155 258.108 487.336C258.108 491.901 256.55 496.147 253.436 500.072C250.321 503.955 246.353 507.752 241.532 511.464H258.812V520.36H226.684V512.232ZM262.334 504.104C262.334 500.776 263.054 497.816 264.494 495.224C265.934 492.6 267.934 490.568 270.494 489.128C273.086 487.656 276.014 486.92 279.278 486.92C283.278 486.92 286.702 487.976 289.55 490.088C292.398 492.2 294.302 495.08 295.262 498.728H286.238C285.566 497.32 284.606 496.248 283.358 495.512C282.142 494.776 280.75 494.408 279.182 494.408C276.654 494.408 274.606 495.288 273.038 497.048C271.47 498.808 270.686 501.16 270.686 504.104C270.686 507.048 271.47 509.4 273.038 511.16C274.606 512.92 276.654 513.8 279.182 513.8C280.75 513.8 282.142 513.432 283.358 512.696C284.606 511.96 285.566 510.888 286.238 509.48H295.262C294.302 513.128 292.398 516.008 289.55 518.12C286.702 520.2 283.278 521.24 279.278 521.24C276.014 521.24 273.086 520.52 270.494 519.08C267.934 517.608 265.934 515.576 264.494 512.984C263.054 510.392 262.334 507.432 262.334 504.104ZM298.657 507.56C298.657 504.808 299.169 502.392 300.193 500.312C301.249 498.232 302.673 496.632 304.465 495.512C306.257 494.392 308.257 493.832 310.465 493.832C312.353 493.832 314.001 494.216 315.409 494.984C316.849 495.752 317.953 496.76 318.721 498.008V494.216H326.929V521H318.721V517.208C317.921 518.456 316.801 519.464 315.361 520.232C313.953 521 312.305 521.384 310.417 521.384C308.241 521.384 306.257 520.824 304.465 519.704C302.673 518.552 301.249 516.936 300.193 514.856C299.169 512.744 298.657 510.312 298.657 507.56ZM318.721 507.608C318.721 505.56 318.145 503.944 316.993 502.76C315.873 501.576 314.497 500.984 312.865 500.984C311.233 500.984 309.841 501.576 308.689 502.76C307.569 503.912 307.009 505.512 307.009 507.56C307.009 509.608 307.569 511.24 308.689 512.456C309.841 513.64 311.233 514.232 312.865 514.232C314.497 514.232 315.873 513.64 316.993 512.456C318.145 511.272 318.721 509.656 318.721 507.608ZM341.075 498.68C342.035 497.208 343.235 496.056 344.675 495.224C346.115 494.36 347.715 493.928 349.475 493.928V502.616H347.219C345.171 502.616 343.635 503.064 342.611 503.96C341.587 504.824 341.075 506.36 341.075 508.568V521H332.867V494.216H341.075V498.68ZM368.326 514.04V521H364.15C361.174 521 358.854 520.28 357.19 518.84C355.526 517.368 354.694 514.984 354.694 511.688V501.032H351.43V494.216H354.694V487.688H362.902V494.216H368.278V501.032H362.902V511.784C362.902 512.584 363.094 513.16 363.478 513.512C363.862 513.864 364.502 514.04 365.398 514.04H368.326Z" fill="white"/>
<g clip-path="url(#clip1_0_1)">
<path d="M439.454 511.606C441.844 510.962 444.392 511.294 446.538 512.529C448.683 513.763 450.25 515.8 450.894 518.19C451.538 520.58 451.206 523.128 449.971 525.273C448.737 527.419 446.7 528.986 444.31 529.63C439.309 530.977 434.206 528.003 432.87 523.046C431.523 518.044 434.452 512.953 439.454 511.606ZM347.934 458.934L362.669 454.965L369.332 462.835L435.976 444.88C437.171 444.558 438.445 444.724 439.518 445.341C440.59 445.959 441.374 446.977 441.696 448.172C441.902 448.938 441.883 449.765 441.762 450.571L433.485 484.071C432.694 487.232 430.23 489.926 426.85 490.836L393.281 499.881L391.204 508.318L391.215 508.895C391.295 509.194 391.491 509.449 391.759 509.603C392.027 509.757 392.346 509.799 392.645 509.718L444.824 495.66L447.252 504.672L393.18 519.24C388.179 520.588 383.076 517.613 381.74 512.656C381.315 511.079 381.32 509.483 381.656 508.039L384.81 495.348L359.374 465.518L350.362 467.946L347.934 458.934ZM394.394 523.746C396.784 523.102 399.332 523.434 401.478 524.669C403.623 525.904 405.19 527.94 405.834 530.33C406.478 532.72 406.146 535.268 404.912 537.414C403.677 539.559 401.64 541.126 399.25 541.77C394.249 543.118 389.146 540.143 387.81 535.186C386.463 530.184 389.393 525.094 394.394 523.746ZM426.45 481.278L432.907 455.373L375.951 470.718L392.655 490.383L426.45 481.278Z" fill="white"/>
</g>
</g>
<defs>
<clipPath id="clip0_0_1">
<rect width="1728" height="1117" fill="white" transform="translate(-787)"/>
</clipPath>
<clipPath id="clip1_0_1">
<rect width="112" height="112" fill="white" transform="translate(341 451.136) rotate(-15.0788)"/>
</clipPath>
</defs>
</svg>
